<svg width="20" height="20" viewBox="0 0 20 20" fill="none" xmlns="http://www.w3.org/2000/svg">
<path fill-rule="evenodd" clip-rule="evenodd" d="M9.99984 16.6665C13.6818 16.6665 16.6665 13.6818 16.6665 9.99984C16.6665 6.31794 13.6818 3.33317 9.99984 3.33317C6.31794 3.33317 3.33317 6.31794 3.33317 9.99984C3.33317 13.6818 6.31794 16.6665 9.99984 16.6665ZM9.99984 18.3332C14.6022 18.3332 18.3332 14.6022 18.3332 9.99984C18.3332 5.39746 14.6022 1.6665 9.99984 1.6665C5.39746 1.6665 1.6665 5.39746 1.6665 9.99984C1.6665 14.6022 5.39746 18.3332 9.99984 18.3332Z" fill="#777E91"/>
<path d="M9.99984 8.3335C9.99984 7.87326 10.3729 7.50016 10.8332 7.50016H11.6665C12.1268 7.50016 12.4998 7.12707 12.4998 6.66683C12.4998 6.2066 12.1268 5.8335 11.6665 5.8335H10.8332C9.45242 5.8335 8.33317 6.95279 8.33317 8.3335V10.0002H7.49984C7.0396 10.0002 6.6665 10.3732 6.6665 10.8335C6.6665 11.2937 7.0396 11.6668 7.49984 11.6668H8.33317V16.6668C8.33317 17.1271 8.70625 17.5002 9.1665 17.5002C9.62675 17.5002 9.99984 17.1271 9.99984 16.6668V11.6668H11.6665C12.1268 11.6668 12.4998 11.2937 12.4998 10.8335C12.4998 10.3732 12.1268 10.0002 11.6665 10.0002H9.99984V8.3335Z" fill="#777E91"/>
</svg>
