<svg width="48" height="48" viewBox="0 0 48 48" fill="none" xmlns="http://www.w3.org/2000/svg">
<path fill-rule="evenodd" clip-rule="evenodd" d="M24 44C31.732 44 38 37.732 38 30C38 22.268 31.732 16 24 16C16.268 16 10 22.268 10 30C10 37.732 16.268 44 24 44ZM24 48C33.9411 48 42 39.9411 42 30C42 20.0589 33.9411 12 24 12C14.0589 12 6 20.0589 6 30C6 39.9411 14.0589 48 24 48Z" fill="#23262F"/>
<path fill-rule="evenodd" clip-rule="evenodd" d="M17.7086 6C14.735 6 12.8011 9.12925 14.1309 11.7889L15.7892 15.1056C16.2832 16.0935 15.8827 17.2949 14.8948 17.7889C13.9068 18.2828 12.7055 17.8824 12.2115 16.8944L10.5531 13.5777C7.89354 8.2585 11.7615 2 17.7086 2H30.2922C36.2392 2 40.1072 8.2585 37.4476 13.5777L35.7892 16.8944C35.2952 17.8824 34.0939 18.2828 33.1059 17.7889C32.118 17.2949 31.7175 16.0935 32.2115 15.1056L33.8699 11.7889C35.1997 9.12925 33.2657 6 30.2922 6H17.7086Z" fill="#23262F"/>
</svg>
