<svg width="40" height="40" viewBox="0 0 40 40" fill="none" xmlns="http://www.w3.org/2000/svg">
<rect width="40" height="40" rx="20" fill="#3772FF"/>
<path fill-rule="evenodd" clip-rule="evenodd" d="M29.9964 16.3751H25.7618C23.7911 16.3786 22.1947 17.9351 22.1911 19.8566C22.1884 21.7823 23.7867 23.3458 25.7618 23.3484H30V23.6543C30 27.0136 27.9636 29 24.5173 29H15.4836C12.0364 29 10 27.0136 10 23.6543V16.3379C10 12.9786 12.0364 11 15.4836 11H24.5138C27.96 11 29.9964 12.9786 29.9964 16.3379V16.3751ZM14.7396 16.3673H20.3796H20.3831H20.3902C20.8124 16.3656 21.1538 16.0302 21.152 15.6177C21.1502 15.206 20.8053 14.8732 20.3831 14.8749H14.7396C14.32 14.8766 13.9796 15.2086 13.9778 15.6185C13.976 16.0302 14.3173 16.3656 14.7396 16.3673Z" fill="#FCFCFD"/>
<path opacity="0.4" d="M24.0374 20.2966C24.2465 21.2478 25.0805 21.917 26.0326 21.8996H29.2825C29.6787 21.8996 30 21.5715 30 21.166V18.6344C29.9991 18.2297 29.6787 17.9008 29.2825 17.8999H25.9561C24.8731 17.9034 23.9983 18.8024 24 19.9102C24 20.0398 24.0128 20.1695 24.0374 20.2966Z" fill="#FCFCFD"/>
<circle cx="26" cy="19.8999" r="1" fill="#FCFCFD"/>
</svg>
