<svg width="40" height="40" viewBox="0 0 40 40" fill="none" xmlns="http://www.w3.org/2000/svg">
<rect width="40" height="40" rx="20" fill="#3772FF"/>
<path opacity="0.4" d="M24.8843 13.1148H21.9413C21.2081 13.1197 20.512 12.7936 20.0474 12.2275L19.0782 10.8876C18.6214 10.3166 17.9253 9.98894 17.1932 10.0003H15.1126C11.3782 10.0003 10 12.192 10 15.9188V19.9474C9.99536 20.3904 29.9956 20.3898 29.9969 19.9474V18.7761C30.0147 15.0492 28.6721 13.1148 24.8843 13.1148Z" fill="white"/>
<path d="M29.5612 15.7131C29.3993 15.2486 29.1521 14.8182 28.8321 14.4442C28.7316 14.326 28.6215 14.2162 28.5032 14.1159C27.4753 13.3074 26.1802 12.9146 24.8754 13.0156H15.0948C12.7652 13.0156 11.3426 13.7698 10.6491 15.2516C10.415 15.7318 10.2503 16.2427 10.16 16.769C10.16 16.9642 10.0978 17.1594 10.0711 17.3635C10.0236 17.7997 9.99983 18.2381 10 18.6768V23.9298C9.99981 24.3727 10.0355 24.8148 10.1067 25.252C10.2187 26.0245 10.4847 26.7667 10.8891 27.4348C11.0734 27.7573 11.2974 28.0554 11.556 28.3222C12.7446 29.4092 14.3205 29.975 15.9306 29.8927H24.0574C25.665 29.9756 27.2383 29.4096 28.4231 28.3222C28.6849 28.0559 28.9119 27.7578 29.0989 27.4348C29.5057 26.7662 29.7775 26.0247 29.8991 25.252C29.963 24.8141 29.9956 24.3723 29.9969 23.9298V18.6768C30.0273 17.671 29.8798 16.6677 29.5612 15.7131Z" fill="white"/>
<path d="M16 24L19 20.5L22 23L25 19" stroke="#3772FF" stroke-width="1.5" stroke-linecap="round" stroke-linejoin="round"/>
</svg>
