<svg width="152" height="184" viewBox="0 0 152 184" fill="none" xmlns="http://www.w3.org/2000/svg">
<g filter="url(#filter0_d)">
<rect x="0.5" y="0.5" width="97" height="97" rx="10" fill="url(#paint0_linear)"/>
</g>
<path opacity="0.5" fill-rule="evenodd" clip-rule="evenodd" d="M52.6264 50.2269C49.1 49.2491 45.7784 49.2693 42.3656 50.2179C40.6512 50.6936 39.5 52.1404 39.5 53.8176V54.7496C39.5 55.1638 39.8576 55.5 40.3 55.5H54.7C55.1424 55.5 55.5 55.1638 55.5 54.7496V53.8281C55.5 52.1509 54.3456 50.7034 52.6264 50.2269Z" fill="white"/>
<path opacity="0.5" fill-rule="evenodd" clip-rule="evenodd" d="M48 47.5C50.5343 47.5 52.5 44.6054 52.5 42.1154C52.5 39.57 50.4818 37.5 48 37.5C45.5182 37.5 43.5 39.57 43.5 42.1154C43.5 44.6054 45.4657 47.5 48 47.5Z" fill="white"/>
<path fill-rule="evenodd" clip-rule="evenodd" d="M61.7135 59.5C61.0411 60.2998 60.2999 61.0408 59.5 61.713L65.2865 67.5L67.5 65.2862L61.7135 59.5Z" fill="white"/>
<path fill-rule="evenodd" clip-rule="evenodd" d="M48 31.5C57.0978 31.5 64.5 38.9014 64.5 48C64.5 57.0986 57.0978 64.5 48 64.5C38.9022 64.5 31.5 57.0986 31.5 48C31.5 38.9014 38.9022 31.5 48 31.5ZM33.0714 48C33.0714 56.2319 39.7681 62.9286 48 62.9286C56.2319 62.9286 62.9286 56.2319 62.9286 48C62.9286 39.7681 56.2319 33.0714 48 33.0714C39.7681 33.0714 33.0714 39.7681 33.0714 48Z" fill="white"/>
<defs>
<filter id="filter0_d" x="-53.5" y="-21.5" width="205" height="205" filterUnits="userSpaceOnUse" color-interpolation-filters="sRGB">
<feFlood flood-opacity="0" result="BackgroundImageFix"/>
<feColorMatrix in="SourceAlpha" type="matrix" values="0 0 0 0 0 0 0 0 0 0 0 0 0 0 0 0 0 0 127 0"/>
<feOffset dy="32"/>
<feGaussianBlur stdDeviation="27"/>
<feColorMatrix type="matrix" values="0 0 0 0 0.144886 0 0 0 0 0.539681 0 0 0 0 1 0 0 0 0.224553 0"/>
<feBlend mode="normal" in2="BackgroundImageFix" result="effect1_dropShadow"/>
<feBlend mode="normal" in="SourceGraphic" in2="effect1_dropShadow" result="shape"/>
</filter>
<linearGradient id="paint0_linear" x1="49" y1="0.5" x2="49" y2="97.5" gradientUnits="userSpaceOnUse">
<stop stop-color="#4072EE"/>
<stop offset="1" stop-color="#4A00E0"/>
</linearGradient>
</defs>
</svg>
