<svg width="20" height="20" viewBox="0 0 20 20" fill="none" xmlns="http://www.w3.org/2000/svg">
<path fill-rule="evenodd" clip-rule="evenodd" d="M13.3332 3.33317H6.6665C4.82555 3.33317 3.33317 4.82555 3.33317 6.6665V13.3332C3.33317 15.1741 4.82555 16.6665 6.6665 16.6665H13.3332C15.1741 16.6665 16.6665 15.1741 16.6665 13.3332V6.6665C16.6665 4.82555 15.1741 3.33317 13.3332 3.33317ZM6.6665 1.6665C3.90508 1.6665 1.6665 3.90508 1.6665 6.6665V13.3332C1.6665 16.0946 3.90508 18.3332 6.6665 18.3332H13.3332C16.0946 18.3332 18.3332 16.0946 18.3332 13.3332V6.6665C18.3332 3.90508 16.0946 1.6665 13.3332 1.6665H6.6665Z" fill="#777E91"/>
<path d="M14.1668 6.66667C14.6271 6.66667 15.0002 6.29357 15.0002 5.83333C15.0002 5.3731 14.6271 5 14.1668 5C13.7066 5 13.3335 5.3731 13.3335 5.83333C13.3335 6.29357 13.7066 6.66667 14.1668 6.66667Z" fill="#777E91"/>
<path fill-rule="evenodd" clip-rule="evenodd" d="M14.1668 10.0002C14.1668 12.3013 12.3013 14.1668 10.0002 14.1668C7.69898 14.1668 5.8335 12.3013 5.8335 10.0002C5.8335 7.69898 7.69898 5.8335 10.0002 5.8335C12.3013 5.8335 14.1668 7.69898 14.1668 10.0002ZM12.5002 10.0002C12.5002 11.3809 11.3809 12.5002 10.0002 12.5002C8.61941 12.5002 7.50016 11.3809 7.50016 10.0002C7.50016 8.61941 8.61941 7.50016 10.0002 7.50016C11.3809 7.50016 12.5002 8.61941 12.5002 10.0002Z" fill="#777E91"/>
</svg>
