<svg width="152" height="184" viewBox="0 0 152 184" fill="none" xmlns="http://www.w3.org/2000/svg">
<g filter="url(#filter0_d)">
<rect x="0.5" y="0.5" width="97" height="97" rx="10" fill="url(#paint0_linear)"/>
</g>
<path fill-rule="evenodd" clip-rule="evenodd" d="M37.131 64.341L26.5 53.5L29.5 50.5L37.5 55.5L60.5 31.5L63.5 33.5L40.15 64.153C39.7981 64.6148 39.2629 64.9009 38.6835 64.937C38.104 64.9731 37.5374 64.7556 37.131 64.341Z" fill="white"/>
<path opacity="0.497489" fill-rule="evenodd" clip-rule="evenodd" d="M71.5 40.5H66.5C65.9477 40.5 65.5 40.0523 65.5 39.5C65.5 38.9477 65.9477 38.5 66.5 38.5H71.5C72.0523 38.5 72.5 38.9477 72.5 39.5C72.5 40.0523 72.0523 40.5 71.5 40.5Z" fill="white"/>
<path opacity="0.497489" fill-rule="evenodd" clip-rule="evenodd" d="M71.5 49.5H59.5C58.9477 49.5 58.5 49.0523 58.5 48.5C58.5 47.9477 58.9477 47.5 59.5 47.5H71.5C72.0523 47.5 72.5 47.9477 72.5 48.5C72.5 49.0523 72.0523 49.5 71.5 49.5Z" fill="white"/>
<path opacity="0.497489" fill-rule="evenodd" clip-rule="evenodd" d="M71.5 58.5H52.5C51.9477 58.5 51.5 58.0523 51.5 57.5C51.5 56.9477 51.9477 56.5 52.5 56.5H71.5C72.0523 56.5 72.5 56.9477 72.5 57.5C72.5 58.0523 72.0523 58.5 71.5 58.5Z" fill="white"/>
<path opacity="0.497489" fill-rule="evenodd" clip-rule="evenodd" d="M71.5 67.5H45.5C44.9477 67.5 44.5 67.0523 44.5 66.5C44.5 65.9477 44.9477 65.5 45.5 65.5H71.5C72.0523 65.5 72.5 65.9477 72.5 66.5C72.5 67.0523 72.0523 67.5 71.5 67.5Z" fill="white"/>
<defs>
<filter id="filter0_d" x="-53.5" y="-21.5" width="205" height="205" filterUnits="userSpaceOnUse" color-interpolation-filters="sRGB">
<feFlood flood-opacity="0" result="BackgroundImageFix"/>
<feColorMatrix in="SourceAlpha" type="matrix" values="0 0 0 0 0 0 0 0 0 0 0 0 0 0 0 0 0 0 127 0"/>
<feOffset dy="32"/>
<feGaussianBlur stdDeviation="27"/>
<feColorMatrix type="matrix" values="0 0 0 0 0.144886 0 0 0 0 0.539681 0 0 0 0 1 0 0 0 0.224553 0"/>
<feBlend mode="normal" in2="BackgroundImageFix" result="effect1_dropShadow"/>
<feBlend mode="normal" in="SourceGraphic" in2="effect1_dropShadow" result="shape"/>
</filter>
<linearGradient id="paint0_linear" x1="49" y1="0.5" x2="49" y2="97.5" gradientUnits="userSpaceOnUse">
<stop stop-color="#4072EE"/>
<stop offset="1" stop-color="#4A00E0"/>
</linearGradient>
</defs>
</svg>
