<svg width="40" height="40" viewBox="0 0 40 40" fill="none" xmlns="http://www.w3.org/2000/svg">
<rect width="40" height="40" rx="20" fill="#3772FF"/>
<path opacity="0.4" d="M24.6756 10H15.3333C11.9289 10 10 11.9289 10 15.3333V24.6667C10 28.0711 11.9289 30 15.3333 30H24.6756C28.08 30 30 28.0711 30 24.6667V15.3333C30 11.9289 28.08 10 24.6756 10Z" fill="white"/>
<path d="M15.3687 17.3689C14.9153 17.3689 14.542 17.7422 14.542 18.2045V25.0756C14.542 25.5289 14.9153 25.9022 15.3687 25.9022C15.8309 25.9022 16.2042 25.5289 16.2042 25.0756V18.2045C16.2042 17.7422 15.8309 17.3689 15.3687 17.3689Z" fill="white"/>
<path d="M20.0352 14.0889C19.5818 14.0889 19.2085 14.4622 19.2085 14.9244V25.0755C19.2085 25.5289 19.5818 25.9022 20.0352 25.9022C20.4974 25.9022 20.8707 25.5289 20.8707 25.0755V14.9244C20.8707 14.4622 20.4974 14.0889 20.0352 14.0889Z" fill="white"/>
<path d="M24.6398 20.9956C24.1775 20.9956 23.8042 21.3689 23.8042 21.8312V25.0756C23.8042 25.5289 24.1775 25.9023 24.6309 25.9023C25.0931 25.9023 25.4664 25.5289 25.4664 25.0756V21.8312C25.4664 21.3689 25.0931 20.9956 24.6398 20.9956Z" fill="white"/>
</svg>
